<svg class="svg-icon" style="width: 1em;height: 1em;vertical-align: middle;fill: currentColor;overflow: hidden;" viewBox="0 0 1024 1024" version="1.1" xmlns="http://www.w3.org/2000/svg"><path d="M558.21 672.55c-7.41 7.48-12.31 12.43-18.32 10.87-5.25-1.44-7.41-7.4-8.82-13.05l-0.5-1.99 0.21-0.05c-3.12-22.9 13.53-142.28 13.76-143.14 2.99-10.96 10.45-74.97 0.17-91.8-0.9-1.48-1.77-2.29-2.69-2.48l-0.42-0.14c-20.24-9.29-74.46 32-93.64 48.69l-7.04 6.12c-0.42 1.32-0.41 2.57 0.04 3.78 0.71 1.14 1.99 1.97 3.72 2.4 10.11 2.61 30.54-8.27 37.68-12.74 1.22-1.13 6.66-5.89 11.98-5.89 1.13 0 2.19 0.21 3.16 0.64 2.23 0.99 4.88 3.39 4.88 9.27l-0.01 0.23c-10.9 68.58-17.5 140.47-19.63 213.76 2.08 10.41 8.57 17.91 17.81 20.58 17.09 4.95 40.11-5.86 61.6-28.91 16.33-22.14 20.27-31.15 21.18-34.52-2.49 0.82-7.31 2.99-12.54 6.48-4.91 4.15-8.99 8.26-12.58 11.89zM525.38 390.84c22.73 2.65 43.44-12.81 47.18-35.25 5.88-22.6-5.94-45.24-27.46-52.78-21.27-2.59-40.9 13.18-43.78 35.22l-0.05 0.19c-7.47 21.67 3.12 44.75 24.11 52.62z"  /><path d="M512 162c-192.99 0-350 157.01-350 350s157.01 350 350 350 350-157.01 350-350-157.01-350-350-350z m0 664.96c-173.67 0-314.96-141.29-314.96-314.96S338.33 197.05 512 197.05s314.96 141.29 314.96 314.96C825.89 685.67 684.61 826.96 512 826.96z"  /></svg>