<svg class="svg-icon" style="width: 1em; height: 1em;vertical-align: middle;fill: currentColor;overflow: hidden;" viewBox="0 0 1024 1024" version="1.1" xmlns="http://www.w3.org/2000/svg"><path d="M796.8 64 544 64c-19.2 0-32 12.8-32 32s12.8 32 32 32l252.8 0C800 128 800 128 800 128L800 896c0 0-3.2 0-3.2 0L544 896c-19.2 0-32 12.8-32 32s12.8 32 32 32l252.8 0c38.4 0 67.2-28.8 67.2-64L864 128C864 92.8 832 64 796.8 64z"  /><path d="M268.8 544 640 544c19.2 0 32-12.8 32-32s-12.8-32-32-32L268.8 480l137.6-137.6c12.8-12.8 12.8-32 0-44.8s-32-12.8-44.8 0l-192 192c-3.2 3.2-6.4 6.4-6.4 9.6-3.2 6.4-3.2 16 0 25.6 3.2 3.2 3.2 6.4 6.4 9.6l192 192c6.4 6.4 16 9.6 22.4 9.6s16-3.2 22.4-9.6c12.8-12.8 12.8-32 0-44.8L268.8 544z"  /></svg>