<svg class="svg-icon" style="width: 1em; height: 1em;vertical-align: middle;fill: currentColor;overflow: hidden;" viewBox="0 0 1024 1024" version="1.1" xmlns="http://www.w3.org/2000/svg"><path d="M849.019757 832.716442H175.334307c-75.077929 0-136.159076-61.080124-136.159076-136.159076V322.856176c0-75.077929 61.080124-136.158053 136.159076-136.158053h673.68545c75.076906 0 136.158053 61.080124 136.158052 136.158053v373.70119c-0.001023 75.078952-61.081147 136.159076-136.158052 136.159076zM175.334307 237.863433c-46.865377 0-84.993766 38.127366-84.993766 84.992743v373.70119c0 46.865377 38.127366 84.993766 84.993766 84.993766h673.68545c46.865377 0 84.992743-38.128389 84.992743-84.993766V322.856176c0-46.865377-38.127366-84.992743-84.992743-84.992743H175.334307z" fill="" /><path d="M505.269715 652.108015c-27.972075 0-55.94415-10.647501-77.239152-31.942503L167.460989 359.596961l36.178991-36.17899 260.568551 260.56855c22.64065 22.641673 59.480696 22.639626 82.121345 0l355.750354-355.751376 36.17899 36.17899-355.74933 355.751377c-21.295002 21.295002-49.267077 31.942503-77.240175 31.942503z" fill="" /></svg>