<svg class="svg-icon" style="width: 1em;height: 1em;vertical-align: middle;fill: currentColor;overflow: hidden;" viewBox="0 0 1024 1024" version="1.1" xmlns="http://www.w3.org/2000/svg"><path d="M888.4224 282.8288l-242.176-262.144c-6.144-6.656-14.7456-10.4448-23.8592-10.4448H226.6112c-54.9888 0-99.6352 44.7488-99.6352 99.6352v804.1472c0 54.9888 44.6464 99.6352 99.6352 99.6352h570.88c54.8864 0 99.6352-44.7488 99.6352-99.6352V304.8448c0-8.192-3.072-15.9744-8.704-22.016z m-86.1184 2.2528H637.8496V107.1104z m29.9008 629.0432c0 19.1488-15.5648 34.816-34.816 34.816H226.6112c-19.1488 0-34.816-15.6672-34.816-34.816V109.8752c0-19.1488 15.5648-34.816 34.816-34.816H607.232v225.28c0 8.4992 6.8608 15.36 15.36 15.36h208.0768l1.6384 1.7408v596.6848z"  /><path d="M312.32 543.8464h399.5648v39.5264H312.32zM312.32 663.2448h399.5648v39.5264H312.32zM312.32 775.5776h399.5648V815.104H312.32z"  /><path d="M424.754176 118.97344c-2.889728 2.888704-3.60448 5.95456-3.60448 14.966784v11.362304l-15.330304 2.889728c-42.03008 7.933952-67.459072 32.284672-73.414656 70.3488-4.15232 27.600896 3.428352 53.39136 21.108736 71.071744 10.461184 10.461184 31.2064 21.462016 53.577728 28.141568l14.066688 4.15232v100.115456l-4.868096-1.988608c-8.297472-3.065856-16.054272-8.658944-22.54848-15.691776-5.77024-6.317056-15.691776-27.05408-18.581504-38.601728-0.723968-2.70336-4.15232-7.395328-7.395328-10.461184-5.40672-4.691968-7.757824-5.407744-16.2304-5.407744-11.7248 0-18.04288 3.065856-23.988224 11.910144-3.790848 5.40672-4.153344 7.757824-3.428352 19.29728 2.164736 32.647168 29.943808 64.57856 66.203648 75.93984 7.57248 2.341888 17.49504 4.86912 22.36416 5.41696l8.480768 1.263616v10.461184c0 12.811264 4.5056 20.021248 12.62592 20.021248 7.934976 0 12.62592-7.2192 12.62592-19.84512v-10.284032l15.878144-3.065856c50.50368-9.92256 81.533952-44.919808 81.533952-92.357632 0-25.614336-8.12032-44.73344-25.976832-61.688832-11.7248-11.186176-28.317696-19.29728-53.75488-26.692608l-17.680384-5.05344v-43.84256c0-29.041664 0.539648-43.83232 1.80224-43.83232 2.341888 0 14.252032 6.131712 18.04288 9.382912 5.769216 4.691968 12.263424 15.32928 15.32928 24.713216 5.769216 17.67936 17.13152 25.074688 33.37216 21.64736 7.933952-1.626112 17.494016-11.911168 18.942976-20.207616 2.70336-14.065664-10.098688-40.042496-26.877952-54.833152-11.7248-10.284032-24.53504-16.053248-44.19584-19.844096l-16.41472-3.243008v-11.362304c0-12.988416-3.605504-18.395136-12.62592-18.395136-3.084288-0.01024-7.051264 1.60768-9.038848 3.596288z m-3.60448 107.324416c0 31.207424-0.539648 40.590336-2.16576 40.590336-4.868096 0-23.988224-12.263424-29.218816-18.581504-10.4704-12.987392-7.943168-38.416384 4.868096-49.240064 5.230592-4.5056 22.009856-13.349888 25.25184-13.349888 0.724992 0 1.263616 18.217984 1.263616 40.58112z m42.391552 109.860864c19.120128 9.197568 26.515456 17.67936 29.042688 33.185792 3.60448 22.54848-12.263424 44.19584-38.063104 51.95264l-8.12032 2.341888v-46.722048c0-36.800512 0.539648-46.8992 2.341888-46.8992 1.263616 0.014336 7.943168 2.712576 14.798848 6.140928z"  /></svg>