<svg class="svg-icon" style="width: 1em; height: 1em;vertical-align: middle;fill: currentColor;overflow: hidden;" viewBox="0 0 1024 1024" version="1.1" xmlns="http://www.w3.org/2000/svg"><path d="M558.768675 882.357026c-2.560312 0-5.276167-0.157589-7.842619-0.375553-28.221762-2.747577-49.403177-14.485923-62.819744-35.277458-25.51307-39.303144-14.219863-99.117438-8.287757-122.670877-43.612287-25.318642-243.36268-140.998291-298.266128-169.07986-3.15997-1.622964-6.969739-2.902096-8.280594-1.856277-12.831236 10.255575-6.822382 80.449263 6.960529 141.747351l249.519913 144.789641c6.016017 3.495614 7.992021 11.223622 4.619204 17.169031-3.370771 6.16542-10.995425 8.085142-16.856923 4.6673L163.077657 713.949478c-3.004427-1.654686-5.126764-4.619204-5.868661-7.959276-7.907087-34.107819-31.366382-147.099243 0.663102-172.714643 6.5246-5.151323 17.958-9.67843 35.042097-0.906649 62.015426 31.719422 297.680796 168.796404 307.653939 174.666088 5.128811 2.964518 7.469112 9.130961 5.644557 14.782681-0.218988 0.731664-22.571065 72.361051 2.638083 110.978581 9.224082 14.204513 23.818475 22.071691 44.49233 24.006763 131.280975 13.0799 259.868609-428.952562 301.93468-616.620779l-378.239554-71.771627L339.664491 531.697621c-2.420119 6.53995-9.756201 9.8176-15.968693 7.353478-6.462179-2.451842-9.685593-9.803273-7.196912-16.266475l141.04434-373.010459c2.12336-5.728468 7.984858-9.06854 13.845333-7.882528l401.043932 76.078723c3.294023 0.593518 6.151094 2.607384 7.992021 5.431709 1.841951 2.809999 2.560312 6.306636 1.841951 9.645684C867.656721 300.292274 736.540498 882.357026 558.768675 882.357026L558.768675 882.357026 558.768675 882.357026zM727.814766 361.386724c-1.327228 0.077771-2.575662-0.01535-3.762697-0.313132l-192.31198-49.183166c-6.617721-1.717108-10.746762-8.55484-9.067516-15.265682 1.614777-6.712889 8.577353-10.895141 15.062044-9.101285l192.297654 49.043996c6.633071 1.702782 10.753925 8.538467 9.006118 15.344476C737.727533 357.406063 733.012138 361.106338 727.814766 361.386724L727.814766 361.386724 727.814766 361.386724zM678.849564 480.173131c-1.248434 0.077771-2.496867 0-3.776-0.375553L482.932476 430.738231c-6.703679-1.701758-10.825556-8.615215-9.139148-15.328104 1.677199-6.789637 8.569166-10.81737 15.124466-9.178033l192.288444 49.184189c6.635117 1.716084 10.692526 8.552793 9.007141 15.265682C688.838056 476.191446 684.125731 479.891721 678.849564 480.173131L678.849564 480.173131 678.849564 480.173131zM629.821941 601.813538c-1.171686 0.062422-2.419096 0-3.699252-0.38988l-192.147228-49.184189c-6.634094-1.654686-10.677177-8.490372-9.069563-15.281031 1.600451-6.774287 8.570189-10.895141 15.125489-9.100262l192.147228 49.13814c6.712889 1.622964 10.832719 8.537444 9.083889 15.248286C639.951649 597.756129 635.300722 601.51678 629.821941 601.813538L629.821941 601.813538 629.821941 601.813538zM558.768675 895.608841c-2.693342 0-5.704932-0.141216-8.951883-0.406253l-0.149403-0.016373c-32.519648-3.168156-56.917314-17.044188-72.519664-41.238216-25.170263-38.775118-18.582217-93.671403-12.300141-123.313513-42.300408-24.520463-225.403656-130.490983-284.397259-161.366178-1.037632 6.370081-1.864464 18.199501-0.320295 39.22742 1.708921 23.130813 5.900384 51.148937 11.613502 77.748758l244.50776 141.885498c5.932106 3.449565 10.17678 9.006118 11.957333 15.686261 1.771343 6.634094 0.904603 13.56597-2.443655 19.511379-4.463662 8.071839-12.907984 13.0799-22.063505 13.0799-4.449335 0-8.842389-1.186012-12.706393-3.433192L156.701436 725.530235c-6.197142-3.447519-10.645454-9.458419-12.236696-16.544815-4.356214-18.777669-12.082176-55.599296-14.94641-91.469248-3.957125-49.620118 2.668783-80.589456 20.244067-94.653777l0.085958-0.077771c7.187703-5.650697 15.772218-8.632611 24.858154-8.632611 7.758708 0 15.866363 2.15406 24.12342 6.384407 64.161299 32.824593 303.478849 172.19992 308.255643 174.992523 10.403954 6.0416 15.265682 18.763342 11.598152 30.2827-7.048533 23.11751-15.889899 73.674976 1.076518 99.680257 7.023974 10.784624 18.075681 16.544815 34.785248 18.105357 1.546216 0.155543 3.035126 0.217964 4.51892 0.217964 25.638937 0 54.007031-21.805632 84.35113-64.824401 27.535123-39.037085 55.974849-94.90244 84.571141-166.001755 48.263214-120.066563 88.566128-263.201517 111.478977-362.318956l-354.123296-67.196425-133.449361 352.935238c-3.722788 10.005888-13.31526 16.717753-23.898293 16.717753-3.090385 0-6.111185-0.562818-8.975419-1.685385-6.383384-2.450818-11.441587-7.272637-14.227026-13.610996-2.794649-6.352685-2.974751-13.408381-0.484024-19.87056l141.011594-372.931664c3.675716-9.911744 13.21293-16.638959 23.694655-16.638959 1.622964 0 3.246951 0.171915 4.847401 0.484024l400.925229 76.063373c6.713912 1.217734 12.752442 5.291516 16.562211 11.175527 3.808746 5.869684 5.151323 13.080923 3.683902 19.824511-6.851035 31.514761-43.892673 196.752106-101.08321 351.627453-32.843012 88.98466-66.792219 159.725818-100.897991 210.285331-20.415982 30.249955-41.270962 53.772694-61.983703 69.879534C607.297948 886.241496 582.969866 895.608841 558.768675 895.608841L558.768675 895.608841zM630.554628 615.051027c-2.715855 0.154519-5.338588-0.12689-7.80578-0.813528l-191.921078-49.137117c-13.57211-3.388167-21.930475-17.405415-18.643616-31.248701 2.574638-10.943236 12.174274-19.012006 23.319102-19.636223 2.63092-0.141216 5.252631 0.124843 7.79657 0.811482l192.000895 49.091068c6.695492 1.653663 12.314467 5.866614 15.858176 11.861142 3.496637 5.948479 4.479011 12.879332 2.778276 19.543102C651.252019 606.576005 641.871371 614.424764 630.554628 615.051027L630.554628 615.051027zM679.582251 493.408573c-2.793626 0.156566-5.384637-0.10847-7.882528-0.811482l-191.944614-48.996924c-6.665817-1.700735-12.268418-5.930059-15.812127-11.924587-3.496637-5.947456-4.511757-12.878309-2.841721-19.558451 2.724041-11.005658 12.144598-18.85544 23.429619-19.48068 2.529613-0.140193 5.058203 0.109494 7.507998 0.718361l192.350866 49.200562c6.618744 1.717108 12.174274 5.91471 15.670911 11.831466 3.511987 5.947456 4.510734 12.907984 2.826372 19.589151C700.140473 484.9796 690.774151 492.784356 679.582251 493.408573L679.582251 493.408573zM728.548476 374.623189c-2.715855 0.156566-5.228071-0.062422-7.648191-0.685615l-192.335517-49.185212c-6.602372-1.716084-12.151761-5.885034-15.663748-11.769045-3.551896-5.931083-4.581342-12.892635-2.926656-19.573801 2.63706-10.879792 12.205996-18.917862 23.288402-19.527752 2.622734-0.140193 5.229095 0.125867 7.750521 0.811482l192.187137 49.012274c6.712889 1.733481 12.300141 5.978155 15.780405 11.972683 3.448542 5.915733 4.41659 12.830213 2.747577 19.464307C749.089301 366.007975 739.58381 374.014322 728.548476 374.623189L728.548476 374.623189zM728.548476 374.623189"  /></svg>