<svg class="svg-icon" style="width: 1.0048828125em;height: 1em;vertical-align: middle;fill: currentColor;overflow: hidden;" viewBox="0 0 1029 1024" version="1.1" xmlns="http://www.w3.org/2000/svg"><path d="M943.894798 958.801498H91.6268a21.3067 21.3067 0 0 1-21.3067-21.3067V85.2268a21.3067 21.3067 0 0 1 42.6134 0v830.961298H943.894798a21.3067 21.3067 0 0 1 0 42.6134z"  /><path d="M304.693799 799.001248a21.3067 21.3067 0 0 1-21.3067-21.3067V511.360799a21.3067 21.3067 0 0 1 42.6134 0v266.333749a21.3067 21.3067 0 0 1-21.3067 21.3067zM517.760799 799.001248a21.3067 21.3067 0 0 1-21.3067-21.3067V191.7603a21.3067 21.3067 0 0 1 42.6134 0v585.934248a21.3067 21.3067 0 0 1-21.3067 21.3067zM730.827799 799.001248a21.3067 21.3067 0 0 1-21.3067-21.3067v-426.133999a21.3067 21.3067 0 0 1 42.6134 0v426.133999a21.3067 21.3067 0 0 1-21.3067 21.3067z"  /></svg>