<svg class="svg-icon" style="width: 1em; height: 1em;vertical-align: middle;fill: currentColor;overflow: hidden;" viewBox="0 0 1024 1024" version="1.1" xmlns="http://www.w3.org/2000/svg"><path d="M597.333333 608.085333v89.173334A256 256 0 0 0 256 938.666667l-85.333333-0.042667a341.333333 341.333333 0 0 1 426.666666-330.581333zM512 554.666667c-141.44 0-256-114.56-256-256s114.56-256 256-256 256 114.56 256 256-114.56 256-256 256z m0-85.333334c94.293333 0 170.666667-76.373333 170.666667-170.666666s-76.373333-170.666667-170.666667-170.666667-170.666667 76.373333-170.666667 170.666667 76.373333 170.666667 170.666667 170.666666z m298.666667 281.002667l90.496-90.538667 60.373333 60.373334L870.997333 810.666667l90.538667 90.496-60.373333 60.373333L810.666667 870.997333l-90.496 90.538667-60.373334-60.373333L750.336 810.666667l-90.538667-90.496 60.373334-60.373334L810.666667 750.336z"  /></svg>